# xmcd
# 
# Track frame offsets:
#     150
#     10635
#     22972
#     34420
#     47775
#     58360
#     76937
#     87637
# 
# Disc length: 1234
# 
# Revision: 4
# Processed by: cddbd v1.5.2PL0 Copyright (c) Steve Scherf et al.
# Submitted via: BonkEnc v1.0.8
# 
DISCID=6004d008
DTITLE=Various Artist - Midnight In Memphis
DYEAR=0
DGENRE=Country
TTITLE0=The Everly Brothers - Bye Bye Love
TTITLE1=Patsy Cline - Crazy
TTITLE2=Kitty Wells - It Wasn't God Who Made Honky Tonk Angels
TTITLE3=Kenny Rodgers - Ruby, Don't Take Your Love To Town
TTITLE4=Barbara Mandrell - Sleeping Single In A Double Bed
TTITLE5=Don Williams - I Believe In You
TTITLE6=Dave Dudley - Six Days On The Road
TTITLE7=Bill "Crash" Ceaddock - Blue Suede Shoes
EXTD=
EXTT0=The Everly Brothers
EXTT1=Patsy Cline
EXTT2=Kitty Wells
EXTT3=Kenny Rodgers and The First Edition
EXTT4=Barbara Mandrell
EXTT5=Don Williams
EXTT6=Dave Dudley
EXTT7=Billy "Crash" Craddock
PLAYORDER=
